<svg width="22" height="22" viewBox="0 0 22 22" fill="none" xmlns="http://www.w3.org/2000/svg">
<path d="M18.1291 19.4858L18.1477 19.4561L19.9995 15.6972L14.5901 11.6401L12.1011 13.5067C11.1625 13.4508 10.2769 13.0528 9.61204 12.3879C8.94716 11.723 8.54912 10.8374 8.49328 9.89877L10.3598 7.4099L6.30284 2.00049L2.57538 3.83693L2.54391 3.85239L2.51422 3.87101C2.35631 3.96901 2.22612 4.1058 2.13602 4.26835C2.04593 4.4309 1.99894 4.6138 1.99953 4.79965L1.99953 5.76957C1.99953 7.63841 2.36762 9.48894 3.08279 11.2155C3.79797 12.9421 4.84621 14.5109 6.16768 15.8324C7.48914 17.1538 9.05795 18.2021 10.7845 18.9172C12.5111 19.6324 14.3616 20.0005 16.2305 20.0005L17.2004 20.0005C17.3863 20.0011 17.5692 19.9541 17.7317 19.864C17.8943 19.7739 18.0311 19.6437 18.1291 19.4858ZM16.2305 18.6114C9.14944 18.6114 3.3886 12.8506 3.3886 5.76957L3.3886 4.98474L5.88299 3.75602L8.62359 7.41016L7.09782 9.44459L7.09782 9.67609C7.09937 11.0617 7.65051 12.3902 8.63031 13.37C9.61012 14.3498 10.9386 14.9009 12.3242 14.9025L12.5557 14.9025L14.5901 13.3767L18.244 16.117L17.0151 18.6114L16.2305 18.6114Z" fill="#333333"/>
</svg>
