<svg width="81" height="67" viewBox="0 0 81 67" fill="none" xmlns="http://www.w3.org/2000/svg">
<path d="M48.3147 56.81C43.0947 62.99 36.3447 66.08 28.0647 66.08C19.7847 66.08 13.0647 62.99 7.90469 56.81C2.74469 50.63 0.164688 42.86 0.164688 33.5C0.164688 24.2 2.77469 16.46 7.99469 10.28C13.2147 4.04 19.9647 0.919999 28.2447 0.919999C36.4647 0.919999 43.1547 4.01 48.3147 10.19C53.5347 16.37 56.1447 24.14 56.1447 33.5C56.1447 42.8 53.5347 50.57 48.3147 56.81ZM18.1647 47.9C20.7447 51.68 24.1047 53.57 28.2447 53.57C32.3847 53.57 35.6847 51.71 38.1447 47.99C40.6647 44.21 41.9247 39.38 41.9247 33.5C41.9247 27.74 40.6347 22.97 38.0547 19.19C35.4747 15.35 32.1447 13.43 28.0647 13.43C23.9847 13.43 20.6847 15.32 18.1647 19.1C15.6447 22.82 14.3847 27.62 14.3847 33.5C14.3847 39.32 15.6447 44.12 18.1647 47.9ZM69.1349 55.352C68.3669 56.184 67.3829 56.6 66.1829 56.6C64.9829 56.6 64.0069 56.192 63.2549 55.376C62.5029 54.544 62.1269 53.52 62.1269 52.304C62.1269 51.088 62.5109 50.072 63.2789 49.256C64.0469 48.424 65.0309 48.008 66.2309 48.008C67.4309 48.008 68.4069 48.424 69.1589 49.256C69.9109 50.072 70.2869 51.088 70.2869 52.304C70.2869 53.504 69.9029 54.52 69.1349 55.352ZM63.8069 65L76.0709 48.2H78.9269L66.6629 65H63.8069ZM79.4549 63.944C78.6869 64.776 77.7029 65.192 76.5029 65.192C75.3029 65.192 74.3269 64.784 73.5749 63.968C72.8229 63.136 72.4469 62.112 72.4469 60.896C72.4469 59.68 72.8309 58.664 73.5989 57.848C74.3669 57.016 75.3509 56.6 76.5509 56.6C77.7509 56.6 78.7269 57.016 79.4789 57.848C80.2309 58.664 80.6069 59.68 80.6069 60.896C80.6069 62.096 80.2229 63.112 79.4549 63.944ZM66.2309 54.416C66.7109 54.416 67.0869 54.216 67.3589 53.816C67.6309 53.4 67.7669 52.896 67.7669 52.304C67.7669 51.728 67.6149 51.232 67.3109 50.816C67.0229 50.4 66.6469 50.192 66.1829 50.192C65.7029 50.192 65.3269 50.392 65.0549 50.792C64.7829 51.192 64.6469 51.696 64.6469 52.304C64.6469 52.88 64.7909 53.376 65.0789 53.792C65.3829 54.208 65.7669 54.416 66.2309 54.416ZM76.5509 63.008C77.0309 63.008 77.4069 62.808 77.6789 62.408C77.9509 61.992 78.0869 61.488 78.0869 60.896C78.0869 60.32 77.9349 59.824 77.6309 59.408C77.3429 58.992 76.9669 58.784 76.5029 58.784C76.0229 58.784 75.6469 58.984 75.3749 59.384C75.1029 59.784 74.9669 60.288 74.9669 60.896C74.9669 61.472 75.1109 61.968 75.3989 62.384C75.7029 62.8 76.0869 63.008 76.5509 63.008Z" fill="#333333"/>
</svg>
