<svg width="25" height="26" viewBox="0 0 25 26" fill="none" xmlns="http://www.w3.org/2000/svg">
<path d="M17.2744 14.758C16.7685 14.2585 16.1368 14.2585 15.6341 14.758C15.2506 15.1383 14.8671 15.5186 14.4901 15.9053C14.3869 16.0116 14.2999 16.0342 14.1742 15.9633C13.9261 15.8279 13.6618 15.7184 13.4234 15.5701C12.3115 14.8708 11.3802 13.9717 10.5552 12.9598C10.1459 12.457 9.78174 11.9188 9.52715 11.313C9.47559 11.1905 9.48526 11.1099 9.58516 11.01C9.96866 10.6394 10.3425 10.2592 10.7195 9.87888C11.2448 9.35037 11.2448 8.73161 10.7163 8.19987C10.4166 7.89694 10.1169 7.60046 9.81719 7.29753C9.50782 6.98815 9.20166 6.67555 8.88907 6.3694C8.38311 5.87633 7.75146 5.87633 7.24873 6.37262C6.86201 6.7529 6.4914 7.14284 6.09824 7.51667C5.73408 7.86149 5.55038 8.28366 5.51171 8.77673C5.45048 9.57918 5.64706 10.3365 5.92421 11.0745C6.4914 12.602 7.35508 13.9588 8.40244 15.2027C9.81719 16.885 11.5059 18.2159 13.4814 19.1763C14.3708 19.6081 15.2925 19.9401 16.2948 19.9948C16.9844 20.0335 17.5838 19.8595 18.064 19.3213C18.3927 18.9539 18.7633 18.6188 19.1114 18.2675C19.627 17.7454 19.6302 17.1138 19.1178 16.5981C18.5055 15.9826 17.89 15.3703 17.2744 14.758Z" fill="#929AA2"/>
</svg>
